<?xml version="1.0" standalone="no"?>
<!DOCTYPE svg PUBLIC "-//W3C//DTD SVG 20010904//EN"
 "http://www.w3.org/TR/2001/REC-SVG-20010904/DTD/svg10.dtd">
<svg version="1.0" xmlns="http://www.w3.org/2000/svg"
 width="256.000000pt" height="256.000000pt" viewBox="0 0 256.000000 256.000000"
 preserveAspectRatio="xMidYMid meet">

<g transform="translate(0.000000,256.000000) scale(0.100000,-0.100000)"
fill="#000000" stroke="none">
<path d="M460 2124 c-143 -39 -244 -154 -271 -308 -21 -121 5 -215 72 -255 30
-18 30 -20 34 -112 6 -120 6 -127 -1 -230 l-5 -87 -48 -4 c-98 -10 -131 -60
-131 -203 0 -102 12 -141 51 -169 20 -14 22 -24 23 -130 1 -129 12 -155 77
-188 32 -17 101 -18 1019 -18 918 0 987 1 1019 18 65 33 76 59 77 188 1 106 3
116 23 130 39 28 51 67 51 169 0 143 -33 193 -131 203 l-48 4 -5 87 c-7 103
-7 110 -1 230 4 92 4 94 34 112 67 41 92 124 73 246 -19 120 -76 211 -170 272
-86 55 -133 61 -468 61 -279 0 -302 -1 -317 -18 -19 -21 -21 -40 -7 -62 8 -13
60 -16 332 -20 363 -6 375 -8 453 -85 57 -57 75 -106 75 -202 0 -138 117 -123
-989 -123 -1108 0 -996 -13 -996 117 1 127 50 208 159 266 36 19 60 22 198 25
141 3 158 6 174 24 17 18 17 22 3 46 l-15 27 -144 2 c-102 1 -161 -2 -200 -13z
m1708 -663 c2 -30 -2 -59 -8 -65 -7 -7 -232 -12 -708 -16 l-697 -5 -10 -22
c-8 -20 -17 -23 -60 -23 -43 0 -52 3 -60 23 -9 20 -17 22 -100 24 -138 4 -135
3 -135 72 0 32 3 61 7 64 3 4 403 6 887 5 l881 -3 3 -54z m-238 -471 l0 -40
-293 0 c-316 0 -332 -2 -325 -51 l3 -24 308 -3 c299 -2 307 -3 307 -22 0 -20
-8 -20 -578 -20 -569 0 -579 0 -597 -20 -15 -16 -17 -26 -9 -48 l9 -27 748 -6
c460 -4 752 -10 758 -16 5 -5 9 -50 7 -99 l-3 -89 -979 -3 c-715 -1 -982 1
-992 9 -17 14 -19 150 -3 180 9 18 20 20 105 18 105 -2 124 6 124 52 0 42 -24
49 -162 49 -83 0 -128 4 -136 12 -7 7 -12 43 -12 90 0 63 3 79 18 87 11 7 306
10 860 11 l842 0 0 -40z"/>
<path d="M1016 2124 c-19 -18 -21 -55 -4 -72 8 -8 54 -12 140 -12 125 0 128 0
144 25 15 23 15 27 0 50 -16 24 -19 25 -141 25 -99 0 -127 -3 -139 -16z"/>
<path d="M1276 1974 c-19 -18 -21 -65 -4 -82 18 -18 63 -14 81 6 47 52 -28
126 -77 76z"/>
<path d="M1878 1979 c-21 -12 -24 -69 -6 -87 7 -7 26 -12 43 -12 38 0 55 16
55 51 0 49 -48 74 -92 48z"/>
<path d="M673 1950 c-46 -19 -37 -94 13 -106 55 -14 89 68 42 100 -25 18 -25
18 -55 6z"/>
<path d="M943 1774 c-15 -24 -15 -29 -2 -53 11 -20 22 -26 49 -26 27 0 38 6
49 26 13 24 13 29 -2 53 -12 18 -26 26 -47 26 -21 0 -35 -8 -47 -26z"/>
<path d="M1586 1784 c-34 -33 -9 -94 38 -94 28 0 56 29 56 57 0 44 -63 69 -94
37z"/>
</g>
</svg>
